<svg width="40" height="40" viewBox="0 0 40 40" fill="none" xmlns="http://www.w3.org/2000/svg">
<path d="M26.6667 35V31.6667C26.6667 29.8986 25.9643 28.2029 24.714 26.9526C23.4638 25.7024 21.7681 25 20 25H10C8.23189 25 6.5362 25.7024 5.28595 26.9526C4.03571 28.2029 3.33333 29.8986 3.33333 31.6667V35M36.6667 34.9998V31.6665C36.6656 30.1894 36.1739 28.7544 35.2689 27.587C34.364 26.4196 33.0969 25.5858 31.6667 25.2165M26.6667 5.21647C28.1007 5.58364 29.3717 6.41764 30.2794 7.58699C31.1871 8.75634 31.6797 10.1945 31.6797 11.6748C31.6797 13.1551 31.1871 14.5933 30.2794 15.7626C29.3717 16.932 28.1007 17.766 26.6667 18.1331M21.6667 11.6667C21.6667 15.3486 18.6819 18.3333 15 18.3333C11.3181 18.3333 8.33333 15.3486 8.33333 11.6667C8.33333 7.98477 11.3181 5 15 5C18.6819 5 21.6667 7.98477 21.6667 11.6667Z" stroke="#18181B" stroke-width="2" stroke-linecap="round" stroke-linejoin="round"/>
</svg>
